<?xml version="1.0" encoding="UTF-8" standalone="no"?>
<svg
   xmlns:dc="http://purl.org/dc/elements/1.1/"
   xmlns:cc="http://creativecommons.org/ns#"
   xmlns:rdf="http://www.w3.org/1999/02/22-rdf-syntax-ns#"
   xmlns:svg="http://www.w3.org/2000/svg"
   xmlns="http://www.w3.org/2000/svg"
   xmlns:sodipodi="http://sodipodi.sourceforge.net/DTD/sodipodi-0.dtd"
   xmlns:inkscape="http://www.inkscape.org/namespaces/inkscape"
   width="885px"
   height="183px"
   viewBox="0 0 885 183"
   version="1.1"
   id="SVGRoot"
   sodipodi:docname="logoFull.svg"
   inkscape:version="1.0.2-2 (e86c870879, 2021-01-15)">
  <defs
     id="defs18">
    <rect
       x="213.57143"
       y="7.1428572"
       width="662.14286"
       height="170"
       id="rect115" />
    <rect
       x="227.14286"
       y="8.5714286"
       width="647.14286"
       height="165"
       id="rect109" />
    <clipPath
       clipPathUnits="userSpaceOnUse"
       id="clipPath2009">
      <path
         style="fill:#ffffff;stroke:#ffffff;stroke-linecap:square;stroke-linejoin:miter;stroke-opacity:1;paint-order:normal"
         d="m 53.273832,-52.314163 0.193522,26.340418 10.714671,-0.317473 -0.101164,-26.571056 z"
         id="path2011" />
    </clipPath>
    <clipPath
       clipPathUnits="userSpaceOnUse"
       id="clipPath2013">
      <path
         style="fill:#ffffff;stroke:#ffffff;stroke-linecap:square;stroke-linejoin:miter;stroke-opacity:1;paint-order:normal"
         d="m 53.273832,-52.314163 0.193522,26.340418 10.714671,-0.317473 -0.101164,-26.571056 z"
         id="path2015" />
    </clipPath>
    <clipPath
       clipPathUnits="userSpaceOnUse"
       id="clipPath2017">
      <path
         style="fill:#ffffff;stroke:#ffffff;stroke-linecap:square;stroke-linejoin:miter;stroke-opacity:1;paint-order:normal"
         d="m 53.273832,-52.314163 0.193522,26.340418 10.714671,-0.317473 -0.101164,-26.571056 z"
         id="path2019" />
    </clipPath>
    <clipPath
       clipPathUnits="userSpaceOnUse"
       id="clipPath2021">
      <path
         style="fill:#ffffff;stroke:#ffffff;stroke-linecap:square;stroke-linejoin:miter;stroke-opacity:1;paint-order:normal"
         d="m 53.273832,-52.314163 0.193522,26.340418 10.714671,-0.317473 -0.101164,-26.571056 z"
         id="path2023" />
    </clipPath>
    <clipPath
       clipPathUnits="userSpaceOnUse"
       id="clipPath2924">
      <rect
         style="fill:#ffffff;stroke:none;stroke-linecap:square"
         id="rect2926"
         width="12.244085"
         height="24.447771"
         x="-0.27297795"
         y="-0.44920877"
         rx="1"
         ry="1" />
    </clipPath>
    <clipPath
       clipPathUnits="userSpaceOnUse"
       id="clipPath2916">
      <rect
         style="fill:#ffffff;stroke:none;stroke-linecap:square"
         id="rect2918"
         width="12.244085"
         height="24.447771"
         x="-0.27297795"
         y="-0.44920877"
         rx="1"
         ry="1" />
    </clipPath>
  </defs>
  <sodipodi:namedview
     id="base"
     pagecolor="#8a8a8a"
     bordercolor="#666666"
     borderopacity="1.0"
     inkscape:pageopacity="0"
     inkscape:pageshadow="2"
     inkscape:zoom="1.4"
     inkscape:cx="445.59004"
     inkscape:cy="51.286487"
     inkscape:document-units="px"
     inkscape:current-layer="layer1"
     inkscape:document-rotation="0"
     showgrid="false"
     inkscape:window-width="1512"
     inkscape:window-height="1041"
     inkscape:window-x="52"
     inkscape:window-y="0"
     inkscape:window-maximized="0" />
  <metadata
     id="metadata21">
    <rdf:RDF>
      <cc:Work
         rdf:about="">
        <dc:format>image/svg+xml</dc:format>
        <dc:type
           rdf:resource="http://purl.org/dc/dcmitype/StillImage" />
        <dc:title />
      </cc:Work>
    </rdf:RDF>
  </metadata>
  <g
     inkscape:label="Layer 1"
     inkscape:groupmode="layer"
     id="layer1">
    <g
       style="fill:none;stroke:#ffffff;stroke-width:2;stroke-linecap:round;stroke-linejoin:round"
       id="g105"
       transform="matrix(6.1888626,0,0,6.3979219,30.229838,11.65763)">
      <rect
         x="49.415859"
         y="-49.672676"
         width="8"
         height="4"
         rx="1"
         ry="1"
         id="rect98"
         clip-path="url(#clipPath2021)"
         transform="translate(-39.123615,51.69436)"
         style="stroke-linecap:butt" />
      <path
         d="m 57.415859,-47.672675 h 2 a 2,2 0 0 1 2,2 v 14 a 2,2 0 0 1 -2,2 h -12 a 2,2 0 0 1 -2,-2 v -14 a 2,2 0 0 1 2,-2 h 2"
         id="path100"
         clip-path="url(#clipPath2017)"
         transform="translate(-39.123615,51.69436)" />
      <path
         d="m 53.415859,-40.672675 h 4"
         id="path102"
         clip-path="url(#clipPath2013)"
         transform="translate(-39.123615,51.69436)" />
      <path
         d="m 53.415859,-35.672675 h 4"
         id="path104"
         clip-path="url(#clipPath2009)"
         transform="translate(-39.123615,51.69436)" />
      <circle
         cx="8"
         cy="21"
         r="1"
         id="circle2053"
         clip-path="url(#clipPath2924)"
         transform="translate(-0.90465265,0.00143814)" />
      <path
         d="m 2.05,2.05 h 2 l 2.66,12.42 a 2,2 0 0 0 2,1.58 h 9.78 a 2,2 0 0 0 1.95,-1.57 L 22.09,7.05 H 5.12"
         id="path2057"
         clip-path="url(#clipPath2916)"
         transform="matrix(1.0826826,0,0,0.99973707,-1.0741526,0.00197714)" />
    </g>
    <text
       xml:space="preserve"
       id="text107"
       style="fill:black;fill-opacity:1;line-height:1.25;stroke:none;font-family:sans-serif;font-style:normal;font-weight:normal;font-size:40px;white-space:pre;shape-inside:url(#rect109);" />
    <text
       xml:space="preserve"
       id="text113"
       style="font-style:normal;font-weight:normal;font-size:120px;line-height:1.25;font-family:sans-serif;white-space:pre;shape-inside:url(#rect115);fill:#aa4400;fill-opacity:1;stroke:none;"
       transform="matrix(1.1147991,0,0,1.2391434,-38.005114,9.9961796)"><tspan
         x="213.57227"
         y="118.19892"><tspan
           style="font-style:normal;font-variant:normal;font-weight:normal;font-stretch:normal;font-size:120px;font-family:inter;-inkscape-font-specification:inter;fill:#ffffff">MarketList</tspan></tspan></text>
  </g>
</svg>
